<?xml version="1.0" encoding="utf-8"?>
<svg id="Capa_1" data-name="Capa 1" xmlns="http://www.w3.org/2000/svg" viewBox="58.051 1.164 63.102 68.011" xmlns:bx="https://boxy-svg.com" width="63.102px" height="68.011px"><defs><style>
      .cls-1 {
        fill: none;
        stroke: #fff;
        stroke-width: 2px;
      }

      .cls-2 {
        fill: #009a44;
        stroke-width: 0px;
      }
    </style><bx:export><bx:file format="svg" path="Sin título.svg"/></bx:export></defs><path class="cls-2" d="M 82.21 45.575 C 82.21 53.225 82.21 60.745 82.22 68.255 C 82.22 69.015 81.9 69.175 81.23 69.175 C 73.88 69.155 66.53 69.135 59.17 69.175 C 57.89 69.175 58.11 68.435 58.08 67.675 C 58.04 66.825 58.06 66.145 59.26 66.235 C 60.52 66.325 61.8 66.225 63.07 66.265 C 63.93 66.295 64.21 65.955 64.2 65.095 C 64.17 61.005 64.17 56.915 64.2 52.825 C 64.21 51.745 63.81 51.765 63.02 52.155 C 61.73 52.785 60.4 53.325 59.12 53.975 C 58.29 54.395 58.13 54.165 58.07 53.305 C 57.96 51.835 58.29 50.995 59.83 50.305 C 69.25 46.075 78.6 41.705 87.95 37.345 C 89.04 36.835 89.97 36.805 91.08 37.315 C 100.32 41.545 109.58 45.715 118.82 49.915 C 121.35 51.065 121.33 51.105 120.9 54.145 C 119.33 53.435 117.78 52.765 116.26 52.045 C 115.28 51.585 114.78 51.565 114.81 52.915 C 114.87 56.945 114.85 60.985 114.81 65.025 C 114.81 65.945 115.08 66.325 116.03 66.285 C 117.41 66.225 118.8 66.315 120.17 66.255 C 121.41 66.195 121.12 67.065 121.11 67.715 C 121.1 68.345 121.47 69.185 120.2 69.175 C 112.79 69.135 105.39 69.145 97.98 69.155 C 97.39 69.155 97.06 69.065 97.06 68.355 C 97.08 60.805 97.07 53.245 97.07 45.645 C 99.05 46.405 100.044 47.715 100.05 49.575 C 100.05 54.665 100.08 59.745 100.03 64.835 C 100.03 65.895 100.29 66.285 101.41 66.255 C 104.45 66.185 107.49 66.195 110.53 66.255 C 111.6 66.275 111.81 65.875 111.8 64.905 C 111.76 60.315 111.76 55.725 111.8 51.145 C 111.8 50.315 111.56 49.865 110.78 49.515 C 104.08 46.505 97.4 43.465 90.73 40.415 C 89.91 40.045 89.22 40.035 88.39 40.415 C 81.73 43.515 75.07 46.585 68.39 49.635 C 67.59 50.005 67.24 50.435 67.25 51.375 C 67.31 55.905 67.31 60.445 67.25 64.975 C 67.24 66.025 67.58 66.275 68.57 66.265 C 71.61 66.215 74.65 66.215 77.69 66.285 C 78.85 66.315 79.19 65.925 79.18 64.775 C 79.13 59.695 79.18 54.605 79.18 49.515 C 79.18 47.622 80.194 46.309 82.22 45.575 L 82.21 45.575 Z" style="stroke-width: 0;"/><path class="cls-2" d="M 82.21 1.175 C 82.21 1.765 82.21 2.365 82.21 2.955 C 82.21 13.565 82.21 24.185 82.21 34.795 C 82.21 37.605 82.23 37.605 79.26 38.575 C 79.23 37.965 79.19 37.395 79.19 36.825 C 79.19 26.925 79.16 17.035 79.2 7.135 C 79.2 5.825 79.04 5.455 77.71 6.105 C 74.74 7.565 71.73 8.945 68.69 10.255 C 67.63 10.715 67.25 11.275 67.25 12.465 C 67.3 22.195 67.27 31.925 67.26 41.655 C 67.26 44.535 67.25 44.535 64.4 45.515 C 64.04 45.025 64.21 44.455 64.21 43.925 C 64.19 32.755 64.21 21.595 64.16 10.425 C 64.16 9.375 64.48 8.885 65.43 8.475 C 70.42 6.255 75.38 3.955 80.36 1.705 C 80.9 1.465 81.41 1.095 82.2 1.175 L 82.21 1.175 Z" style="stroke-width: 0;"/><path class="cls-2" d="M 114.68 45.515 C 114.11 45.245 113.68 44.985 113.21 44.825 C 112.04 44.425 111.73 43.665 111.74 42.445 C 111.8 34.875 111.73 27.295 111.81 19.725 C 111.82 18.385 111.37 17.795 110.2 17.285 C 106.87 15.835 103.61 14.245 100.32 12.715 C 99.89 13.255 100.06 13.765 100.06 14.225 C 100.04 21.745 100.05 29.265 100 36.775 C 100 37.355 100.46 38.605 99.53 38.435 C 98.62 38.275 97.08 38.145 97.08 36.485 C 97.08 27.095 97.08 17.695 97.08 8.145 C 98.91 8.615 100.48 9.485 102.09 10.225 C 105.96 11.995 109.79 13.835 113.64 15.625 C 114.4 15.975 114.85 16.345 114.85 17.325 C 114.8 26.505 114.81 35.675 114.8 44.855 C 114.8 45.015 114.74 45.165 114.68 45.515 L 114.68 45.515 Z" style="stroke-width: 0;"/><rect class="cls-2" x="102.86" y="55.295" width="2.83" height="2.83" style="stroke-width: 0;"/><rect class="cls-2" x="106.24" y="55.245" width="2.83" height="2.83" style="stroke-width: 0;"/><rect class="cls-2" x="102.86" y="58.955" width="2.83" height="2.83" style="stroke-width: 0;"/><rect class="cls-2" x="106.24" y="58.955" width="2.83" height="2.83" style="stroke-width: 0;"/><rect class="cls-2" x="70.08" y="55.295" width="2.83" height="2.83" style="stroke-width: 0;"/><rect class="cls-2" x="73.46" y="55.245" width="2.83" height="2.83" style="stroke-width: 0;"/><rect class="cls-2" x="70.08" y="58.955" width="2.83" height="2.83" style="stroke-width: 0;"/><rect class="cls-2" x="73.46" y="58.955" width="2.83" height="2.83" style="stroke-width: 0;"/></svg>