<?xml version="1.0" encoding="UTF-8"?>
<svg id="Capa_1" data-name="Capa 1" xmlns="http://www.w3.org/2000/svg" viewBox="0 0 207.72 96.81">
  <defs>
    <style>
      .cls-1 {
        fill: none;
        stroke: #fff;
        stroke-width: 2px;
      }

      .cls-2 {
        fill: #009a44;
        stroke-width: 0px;
      }
    </style>
  </defs>
  <g>
    <g>
      <path class="cls-2" d="M25.35,65.67c0,1.52-.45,2.74-1.34,3.64-.89.9-2.11,1.4-3.65,1.5-2.31.1-4.63.18-6.97.25-2.34.07-4.66.11-6.96.11-2.05,0-3.63-.55-4.75-1.66-1.12-1.11-1.68-2.7-1.68-4.77,0-5.97.19-11.9.58-17.8.38-5.9.72-11.83,1.01-17.8.19-2.07.58-3.62,1.16-4.66.58-1.04,1.64-1.55,3.18-1.55,1.11,0,1.99.28,2.64.83.65.55.98,1.48.98,2.79,0,2.32-.13,4.61-.4,6.87-.27,2.27-.45,4.56-.54,6.87-.25,4.05-.51,8.08-.76,12.08-.25,4-.48,8.05-.68,12.15,1.35.24,2.58.36,3.68.36,1.01,0,2.33-.18,3.97-.54,1.64-.36,3.24-.64,4.8-.83,1.56-.19,2.91-.17,4.04.07,1.13.24,1.7.94,1.7,2.08Z"/>
      <path class="cls-2" d="M46.51,66.91v-7.37c-.63,1.11-1.34,2.3-2.13,3.58-.79,1.28-1.67,2.46-2.64,3.54-.96,1.08-2,1.97-3.11,2.67-1.11.7-2.29,1.05-3.54,1.05s-2.31-.21-3.32-.61c-1.01-.41-1.89-.96-2.64-1.66-.75-.7-1.34-1.52-1.77-2.46-.43-.94-.67-1.94-.72-3-.1-1.54-.17-3.22-.22-5.06-.05-1.83-.08-3.69-.11-5.6-.02-1.9-.04-3.77-.04-5.6v-5.06c0-1.25.42-2.38,1.26-3.39.84-1.01,1.87-1.52,3.07-1.52.77,0,1.41.12,1.91.36.51.24.88.55,1.12.94.24.39.41.82.51,1.3.1.48.14.96.14,1.44,0,1.3-.04,2.73-.12,4.3-.08,1.57-.18,3.15-.31,4.77-.13,1.61-.24,3.2-.32,4.77-.08,1.57-.12,3-.12,4.3,0,.39.05.84.14,1.37.1.53.27,1.05.51,1.55.24.51.53.93.87,1.26.34.34.77.51,1.31.51,1.06-.05,1.98-.55,2.75-1.52.77-.96,1.45-2.11,2.03-3.43.58-1.32,1.07-2.7,1.49-4.12.41-1.42.76-2.61,1.05-3.58.39-1.3.71-2.77.98-4.41.27-1.64.6-3.18,1.01-4.62s.95-2.66,1.63-3.65c.68-.99,1.59-1.48,2.75-1.48.97,0,1.83.22,2.61.65.77.43,1.21,1.13,1.3,2.09.14,1.16.25,2.47.32,3.94.07,1.47.14,2.96.22,4.48.07,1.52.12,3.01.14,4.48.02,1.47.04,2.78.04,3.94,0,2.46-.06,4.86-.18,7.22-.12,2.36-.28,4.74-.47,7.15-.14,2.26-.41,4.59-.79,6.97-.39,2.38-.96,4.67-1.73,6.86-.77,2.19-1.79,4.21-3.07,6.07-1.28,1.85-2.88,3.43-4.8,4.73-1.83,1.16-3.73,1.73-5.71,1.73-1.3,0-2.47-.26-3.5-.79-1.04-.53-1.91-1.23-2.64-2.09-.72-.87-1.26-1.82-1.62-2.85-.36-1.04-.54-2.06-.54-3.07,0-2.65.58-5.02,1.73-7.11,1.16-2.09,2.59-4,4.3-5.71,1.71-1.71,3.55-3.24,5.53-4.59,1.97-1.35,3.78-2.58,5.42-3.68ZM46.73,73.41c-.14-.05-.41-.17-.79-.36-1.16.91-2.28,1.84-3.36,2.78-1.08.94-2.08,1.95-3,3.03-.92,1.08-1.72,2.28-2.42,3.58-.7,1.3-1.24,2.77-1.62,4.41-.1.38-.14.67-.14.87,0,.77.24,1.34.72,1.7.48.36,1.35.54,2.6.54,1.44,0,2.62-.59,3.54-1.77.91-1.18,1.65-2.61,2.2-4.3.55-1.69.99-3.49,1.3-5.42.31-1.93.64-3.61.98-5.06Z"/>
    </g>
    <g>
      <path class="cls-1" d="M25.35,65.67c0,1.52-.45,2.74-1.34,3.64-.89.9-2.11,1.4-3.65,1.5-2.31.1-4.63.18-6.97.25-2.34.07-4.66.11-6.96.11-2.05,0-3.63-.55-4.75-1.66-1.12-1.11-1.68-2.7-1.68-4.77,0-5.97.19-11.9.58-17.8.38-5.9.72-11.83,1.01-17.8.19-2.07.58-3.62,1.16-4.66.58-1.04,1.64-1.55,3.18-1.55,1.11,0,1.99.28,2.64.83.65.55.98,1.48.98,2.79,0,2.32-.13,4.61-.4,6.87-.27,2.27-.45,4.56-.54,6.87-.25,4.05-.51,8.08-.76,12.08-.25,4-.48,8.05-.68,12.15,1.35.24,2.58.36,3.68.36,1.01,0,2.33-.18,3.97-.54,1.64-.36,3.24-.64,4.8-.83,1.56-.19,2.91-.17,4.04.07,1.13.24,1.7.94,1.7,2.08Z"/>
      <path class="cls-1" d="M46.51,66.91v-7.37c-.63,1.11-1.34,2.3-2.13,3.58-.79,1.28-1.67,2.46-2.64,3.54-.96,1.08-2,1.97-3.11,2.67-1.11.7-2.29,1.05-3.54,1.05s-2.31-.21-3.32-.61c-1.01-.41-1.89-.96-2.64-1.66-.75-.7-1.34-1.52-1.77-2.46-.43-.94-.67-1.94-.72-3-.1-1.54-.17-3.22-.22-5.06-.05-1.83-.08-3.69-.11-5.6-.02-1.9-.04-3.77-.04-5.6v-5.06c0-1.25.42-2.38,1.26-3.39.84-1.01,1.87-1.52,3.07-1.52.77,0,1.41.12,1.91.36.51.24.88.55,1.12.94.24.39.41.82.51,1.3.1.48.14.96.14,1.44,0,1.3-.04,2.73-.12,4.3-.08,1.57-.18,3.15-.31,4.77-.13,1.61-.24,3.2-.32,4.77-.08,1.57-.12,3-.12,4.3,0,.39.05.84.14,1.37.1.53.27,1.05.51,1.55.24.51.53.93.87,1.26.34.34.77.51,1.31.51,1.06-.05,1.98-.55,2.75-1.52.77-.96,1.45-2.11,2.03-3.43.58-1.32,1.07-2.7,1.49-4.12.41-1.42.76-2.61,1.05-3.58.39-1.3.71-2.77.98-4.41.27-1.64.6-3.18,1.01-4.62s.95-2.66,1.63-3.65c.68-.99,1.59-1.48,2.75-1.48.97,0,1.83.22,2.61.65.77.43,1.21,1.13,1.3,2.09.14,1.16.25,2.47.32,3.94.07,1.47.14,2.96.22,4.48.07,1.52.12,3.01.14,4.48.02,1.47.04,2.78.04,3.94,0,2.46-.06,4.86-.18,7.22-.12,2.36-.28,4.74-.47,7.15-.14,2.26-.41,4.59-.79,6.97-.39,2.38-.96,4.67-1.73,6.86-.77,2.19-1.79,4.21-3.07,6.07-1.28,1.85-2.88,3.43-4.8,4.73-1.83,1.16-3.73,1.73-5.71,1.73-1.3,0-2.47-.26-3.5-.79-1.04-.53-1.91-1.23-2.64-2.09-.72-.87-1.26-1.82-1.62-2.85-.36-1.04-.54-2.06-.54-3.07,0-2.65.58-5.02,1.73-7.11,1.16-2.09,2.59-4,4.3-5.71,1.71-1.71,3.55-3.24,5.53-4.59,1.97-1.35,3.78-2.58,5.42-3.68ZM46.73,73.41c-.14-.05-.41-.17-.79-.36-1.16.91-2.28,1.84-3.36,2.78-1.08.94-2.08,1.95-3,3.03-.92,1.08-1.72,2.28-2.42,3.58-.7,1.3-1.24,2.77-1.62,4.41-.1.38-.14.67-.14.87,0,.77.24,1.34.72,1.7.48.36,1.35.54,2.6.54,1.44,0,2.62-.59,3.54-1.77.91-1.18,1.65-2.61,2.2-4.3.55-1.69.99-3.49,1.3-5.42.31-1.93.64-3.61.98-5.06Z"/>
    </g>
  </g>
  <path class="cls-2" d="M88.28,44.41c0,7.65,0,15.17.01,22.68,0,.76-.32.92-.99.92-7.35-.02-14.7-.04-22.06,0-1.28,0-1.06-.74-1.09-1.5-.04-.85-.02-1.53,1.18-1.44,1.26.09,2.54-.01,3.81.03.86.03,1.14-.31,1.13-1.17-.03-4.09-.03-8.18,0-12.27.01-1.08-.39-1.06-1.18-.67-1.29.63-2.62,1.17-3.9,1.82-.83.42-.99.19-1.05-.67-.11-1.47.22-2.31,1.76-3,9.42-4.23,18.77-8.6,28.12-12.96,1.09-.51,2.02-.54,3.13-.03,9.24,4.23,18.5,8.4,27.74,12.6,2.53,1.15,2.51,1.19,2.08,4.23-1.57-.71-3.12-1.38-4.64-2.1-.98-.46-1.48-.48-1.45.87.06,4.03.04,8.07,0,12.11,0,.92.27,1.3,1.22,1.26,1.38-.06,2.77.03,4.14-.03,1.24-.06.95.81.94,1.46-.01.63.36,1.47-.91,1.46-7.41-.04-14.81-.03-22.22-.02-.59,0-.92-.09-.92-.8.02-7.55.01-15.11.01-22.71q2.97,1.14,2.98,3.93c0,5.09.03,10.17-.02,15.26,0,1.06.26,1.45,1.38,1.42,3.04-.07,6.08-.06,9.12,0,1.07.02,1.28-.38,1.27-1.35-.04-4.59-.04-9.18,0-13.76,0-.83-.24-1.28-1.02-1.63-6.7-3.01-13.38-6.05-20.05-9.1-.82-.37-1.51-.38-2.34,0-6.66,3.1-13.32,6.17-20,9.22-.8.37-1.15.8-1.14,1.74.06,4.53.06,9.07,0,13.6-.01,1.05.33,1.3,1.32,1.29,3.04-.05,6.08-.05,9.12.02,1.16.03,1.5-.36,1.49-1.51-.05-5.08,0-10.17,0-15.26q0-2.84,3.04-3.94Z"/>
  <path class="cls-2" d="M88.28.01c0,.59,0,1.19,0,1.78,0,10.61,0,21.23,0,31.84,0,2.81.02,2.81-2.95,3.78-.03-.61-.07-1.18-.07-1.75,0-9.9-.03-19.79.01-29.69,0-1.31-.16-1.68-1.49-1.03-2.97,1.46-5.98,2.84-9.02,4.15-1.06.46-1.44,1.02-1.44,2.21.05,9.73.02,19.46.01,29.19,0,2.88-.01,2.88-2.86,3.86-.36-.49-.19-1.06-.19-1.59-.02-11.17,0-22.33-.05-33.5,0-1.05.32-1.54,1.27-1.95,4.99-2.22,9.95-4.52,14.93-6.77.54-.24,1.05-.61,1.84-.53Z"/>
  <path class="cls-2" d="M120.75,44.35c-.57-.27-1-.53-1.47-.69-1.17-.4-1.48-1.16-1.47-2.38.06-7.57-.01-15.15.07-22.72.01-1.34-.44-1.93-1.61-2.44-3.33-1.45-6.59-3.04-9.88-4.57-.43.54-.26,1.05-.26,1.51-.02,7.52-.01,15.04-.06,22.55,0,.58.46,1.83-.47,1.66-.91-.16-2.45-.29-2.45-1.95,0-9.39,0-18.79,0-28.34,1.83.47,3.4,1.34,5.01,2.08,3.87,1.77,7.7,3.61,11.55,5.4.76.35,1.21.72,1.21,1.7-.05,9.18-.04,18.35-.05,27.53,0,.16-.06.31-.12.66Z"/>
  <rect class="cls-2" x="108.93" y="54.13" width="2.83" height="2.83"/>
  <rect class="cls-2" x="112.31" y="54.08" width="2.83" height="2.83"/>
  <rect class="cls-2" x="108.93" y="57.79" width="2.83" height="2.83"/>
  <rect class="cls-2" x="112.31" y="57.79" width="2.83" height="2.83"/>
  <g>
    <g>
      <path class="cls-2" d="M129.5,53.65c-.1-2.46.19-4.85.87-7.19.67-2.33,1.66-4.41,2.96-6.21,1.3-1.8,2.9-3.26,4.8-4.37,1.9-1.11,4.06-1.66,6.46-1.66,2.07,0,3.95.47,5.63,1.41,1.68.94,3.14,2.19,4.37,3.76,1.23,1.57,2.18,3.38,2.85,5.45.67,2.07,1.01,4.26,1.01,6.57,0,1.88-.34,3.86-1.01,5.96-.67,2.09-1.65,4.01-2.92,5.74-1.28,1.73-2.83,3.18-4.66,4.33-1.83,1.16-3.9,1.73-6.21,1.73s-4.35-.42-6.1-1.26c-1.76-.84-3.23-1.97-4.41-3.39-1.18-1.42-2.07-3.07-2.67-4.95-.6-1.88-.93-3.85-.97-5.92ZM151.1,50.57c-.05-.87-.17-1.91-.36-3.12-.19-1.21-.53-2.35-1.01-3.44-.48-1.09-1.14-2.02-1.99-2.79-.84-.77-1.94-1.16-3.29-1.16s-2.4.42-3.29,1.27c-.89.85-1.6,1.88-2.13,3.12-.53,1.23-.9,2.54-1.12,3.91s-.33,2.62-.33,3.73c0,3.48.55,6.15,1.66,8.01,1.11,1.86,2.65,2.79,4.62,2.79,5.25,0,7.66-4.11,7.22-12.32Z"/>
      <path class="cls-2" d="M170.81,41.08c0,.24-.01.51-.04.79-.03.29-.04.65-.04,1.08.38.34.77.72,1.16,1.16.38.43.79.77,1.23,1.01,1.3.77,2.71,1.58,4.23,2.42,1.52.84,2.92,1.81,4.22,2.89,1.3,1.08,2.38,2.31,3.25,3.68.87,1.37,1.3,2.95,1.3,4.73,0,1.64-.4,3.07-1.19,4.3-.79,1.23-1.82,2.26-3.07,3.11-1.25.84-2.65,1.47-4.19,1.88-1.54.41-3.06.61-4.55.61-1.64,0-3.2-.23-4.69-.69-1.49-.46-2.8-1.09-3.94-1.91-1.13-.82-2.04-1.83-2.71-3.03-.67-1.2-1.01-2.58-1.01-4.12,0-1.78.45-3.19,1.35-4.22.9-1.04,1.93-1.55,3.1-1.55,1.02,0,1.95.34,2.77,1.02,0,.44-.01.86-.04,1.27-.03.41-.04.81-.04,1.2,0,.73.07,1.44.21,2.15.14.7.41,1.32.79,1.86s.9.96,1.54,1.27c.65.32,1.45.47,2.4.47,1.67,0,2.99-.37,3.95-1.12.96-.75,1.43-1.73,1.43-2.93,0-.67-.17-1.25-.5-1.74-.34-.48-.76-.92-1.26-1.3-.5-.39-1.05-.76-1.62-1.12-.58-.36-1.11-.74-1.59-1.12-.96-.72-2.02-1.5-3.18-2.32-1.16-.82-2.23-1.69-3.21-2.61-.99-.92-1.82-1.89-2.49-2.93-.67-1.04-1.01-2.16-1.01-3.37,0-1.35.36-2.53,1.08-3.55.72-1.01,1.64-1.86,2.74-2.53,1.11-.68,2.3-1.18,3.58-1.52,1.28-.34,2.47-.51,3.58-.51.67,0,1.53.1,2.56.29,1.04.19,2.03.51,3,.94.96.43,1.79,1,2.49,1.7.7.7,1.05,1.55,1.05,2.56,0,.82-.19,1.48-.58,1.99-.39.51-1.04.76-1.95.76-.58,0-1.13-.12-1.66-.36-.53-.24-1.05-.52-1.55-.83-.51-.31-1.04-.59-1.59-.83-.55-.24-1.17-.36-1.84-.36-1.2,0-2.36.48-3.47,1.44Z"/>
      <path class="cls-2" d="M198.04,34.15c1.59,0,2.91-.01,3.97-.04,1.06-.02,1.89.05,2.49.22.6.17,1.02.47,1.26.9.24.43.36,1.08.36,1.95,0,.63-.19,1.12-.58,1.48-.39.36-.83.63-1.34.79-.5.17-1.05.28-1.62.33-.58.05-1.04.07-1.37.07h-1.81c-.63,0-1.23.05-1.81.14,0,1.4-.01,2.89-.04,4.48s-.04,3.19-.04,4.8v4.8c0,1.59.05,3.06.14,4.41.1,1.4.4,2.42.9,3.07.5.65,1.46,1.17,2.85,1.55.19,0,.62-.18,1.3-.54.67-.36,1.38-.69,2.13-.98.75-.29,1.41-.41,1.99-.36.58.05.87.46.87,1.23,0,.96-.29,1.81-.87,2.53-.58.72-1.28,1.35-2.09,1.88-.82.53-1.71.93-2.67,1.19-.96.27-1.83.4-2.6.4-2.94,0-5.08-.59-6.43-1.77-1.35-1.18-2.25-2.65-2.71-4.41-.46-1.76-.64-3.62-.54-5.6.1-1.97.14-3.75.14-5.34v-11.41h-2.74c-1.4-.72-2.09-1.76-2.09-3.11,0-.87.17-1.48.51-1.84.34-.36.75-.59,1.23-.69.48-.1.99-.13,1.52-.11.53.03.99-.04,1.37-.18.19-1.01.36-2.17.51-3.47.14-1.3.38-2.54.72-3.72s.82-2.17,1.45-2.96c.62-.79,1.52-1.19,2.67-1.19.82,0,1.59.36,2.31,1.08.72.72,1.08,1.71,1.08,2.96,0,1.11-.05,2.25-.14,3.43-.1,1.18-.19,2.52-.29,4.01Z"/>
    </g>
    <g>
      <path class="cls-1" d="M129.5,53.65c-.1-2.46.19-4.85.87-7.19.67-2.33,1.66-4.41,2.96-6.21,1.3-1.8,2.9-3.26,4.8-4.37,1.9-1.11,4.06-1.66,6.46-1.66,2.07,0,3.95.47,5.63,1.41,1.68.94,3.14,2.19,4.37,3.76,1.23,1.57,2.18,3.38,2.85,5.45.67,2.07,1.01,4.26,1.01,6.57,0,1.88-.34,3.86-1.01,5.96-.67,2.09-1.65,4.01-2.92,5.74-1.28,1.73-2.83,3.18-4.66,4.33-1.83,1.16-3.9,1.73-6.21,1.73s-4.35-.42-6.1-1.26c-1.76-.84-3.23-1.97-4.41-3.39-1.18-1.42-2.07-3.07-2.67-4.95-.6-1.88-.93-3.85-.97-5.92ZM151.1,50.57c-.05-.87-.17-1.91-.36-3.12-.19-1.21-.53-2.35-1.01-3.44-.48-1.09-1.14-2.02-1.99-2.79-.84-.77-1.94-1.16-3.29-1.16s-2.4.42-3.29,1.27c-.89.85-1.6,1.88-2.13,3.12-.53,1.23-.9,2.54-1.12,3.91s-.33,2.62-.33,3.73c0,3.48.55,6.15,1.66,8.01,1.11,1.86,2.65,2.79,4.62,2.79,5.25,0,7.66-4.11,7.22-12.32Z"/>
      <path class="cls-1" d="M170.81,41.08c0,.24-.01.51-.04.79-.03.29-.04.65-.04,1.08.38.34.77.72,1.16,1.16.38.43.79.77,1.23,1.01,1.3.77,2.71,1.58,4.23,2.42,1.52.84,2.92,1.81,4.22,2.89,1.3,1.08,2.38,2.31,3.25,3.68.87,1.37,1.3,2.95,1.3,4.73,0,1.64-.4,3.07-1.19,4.3-.79,1.23-1.82,2.26-3.07,3.11-1.25.84-2.65,1.47-4.19,1.88-1.54.41-3.06.61-4.55.61-1.64,0-3.2-.23-4.69-.69-1.49-.46-2.8-1.09-3.94-1.91-1.13-.82-2.04-1.83-2.71-3.03-.67-1.2-1.01-2.58-1.01-4.12,0-1.78.45-3.19,1.35-4.22.9-1.04,1.93-1.55,3.1-1.55,1.02,0,1.95.34,2.77,1.02,0,.44-.01.86-.04,1.27-.03.41-.04.81-.04,1.2,0,.73.07,1.44.21,2.15.14.7.41,1.32.79,1.86s.9.96,1.54,1.27c.65.32,1.45.47,2.4.47,1.67,0,2.99-.37,3.95-1.12.96-.75,1.43-1.73,1.43-2.93,0-.67-.17-1.25-.5-1.74-.34-.48-.76-.92-1.26-1.3-.5-.39-1.05-.76-1.62-1.12-.58-.36-1.11-.74-1.59-1.12-.96-.72-2.02-1.5-3.18-2.32-1.16-.82-2.23-1.69-3.21-2.61-.99-.92-1.82-1.89-2.49-2.93-.67-1.04-1.01-2.16-1.01-3.37,0-1.35.36-2.53,1.08-3.55.72-1.01,1.64-1.86,2.74-2.53,1.11-.68,2.3-1.18,3.58-1.52,1.28-.34,2.47-.51,3.58-.51.67,0,1.53.1,2.56.29,1.04.19,2.03.51,3,.94.96.43,1.79,1,2.49,1.7.7.7,1.05,1.55,1.05,2.56,0,.82-.19,1.48-.58,1.99-.39.51-1.04.76-1.95.76-.58,0-1.13-.12-1.66-.36-.53-.24-1.05-.52-1.55-.83-.51-.31-1.04-.59-1.59-.83-.55-.24-1.17-.36-1.84-.36-1.2,0-2.36.48-3.47,1.44Z"/>
      <path class="cls-1" d="M198.04,34.15c1.59,0,2.91-.01,3.97-.04,1.06-.02,1.89.05,2.49.22.6.17,1.02.47,1.26.9.24.43.36,1.08.36,1.95,0,.63-.19,1.12-.58,1.48-.39.36-.83.63-1.34.79-.5.17-1.05.28-1.62.33-.58.05-1.04.07-1.37.07h-1.81c-.63,0-1.23.05-1.81.14,0,1.4-.01,2.89-.04,4.48s-.04,3.19-.04,4.8v4.8c0,1.59.05,3.06.14,4.41.1,1.4.4,2.42.9,3.07.5.65,1.46,1.17,2.85,1.55.19,0,.62-.18,1.3-.54.67-.36,1.38-.69,2.13-.98.75-.29,1.41-.41,1.99-.36.58.05.87.46.87,1.23,0,.96-.29,1.81-.87,2.53-.58.72-1.28,1.35-2.09,1.88-.82.53-1.71.93-2.67,1.19-.96.27-1.83.4-2.6.4-2.94,0-5.08-.59-6.43-1.77-1.35-1.18-2.25-2.65-2.71-4.41-.46-1.76-.64-3.62-.54-5.6.1-1.97.14-3.75.14-5.34v-11.41h-2.74c-1.4-.72-2.09-1.76-2.09-3.11,0-.87.17-1.48.51-1.84.34-.36.75-.59,1.23-.69.48-.1.99-.13,1.52-.11.53.03.99-.04,1.37-.18.19-1.01.36-2.17.51-3.47.14-1.3.38-2.54.72-3.72s.82-2.17,1.45-2.96c.62-.79,1.52-1.19,2.67-1.19.82,0,1.59.36,2.31,1.08.72.72,1.08,1.71,1.08,2.96,0,1.11-.05,2.25-.14,3.43-.1,1.18-.19,2.52-.29,4.01Z"/>
    </g>
  </g>
  <rect class="cls-2" x="76.15" y="54.13" width="2.83" height="2.83"/>
  <rect class="cls-2" x="79.53" y="54.08" width="2.83" height="2.83"/>
  <rect class="cls-2" x="76.15" y="57.79" width="2.83" height="2.83"/>
  <rect class="cls-2" x="79.53" y="57.79" width="2.83" height="2.83"/>
</svg>